<svg xmlns="http://www.w3.org/2000/svg" viewBox="0 0 800 800" width="800" height="800"><path transform="translate(393,75)" d="m0 0h19l12 5 8 5v2l4 2 4 5v4l4 2 4 8v4l3 1 1 7 4 1v5l3 1 1 7 4 2v4h2l2 4v4l4 2v4l3 1 3 6 6 11v4l3 1 1 7 4 2v3h2l2 4v5l4 2v4h2l2 4v4l4 2v4h2l2 4v4h2l2 3v4l3 1 1 6h2l2 4v5h3l1 5h2l2 4v4l4 2v4h2l2 4v5l4 2 4 8v4h2l2 3v4l4 2v4h2l2 4v5h3l1 5h2l2 5v4l3 1 5 9v3h2l6 11v3h2l2 4v5h3l3 6 2 3v5l3 1 5 8v4h2l6 11v3h2l4 8 2 3v3h2l2 4v5h3l3 6 2 3v5l4 2 4 8v4h2l6 10v4l3 1 1 7h3l1 5h2l2 4v5l4 2 4 8v4l3 1 5 8v4h2l4 8 2 3v3h2l2 4v5l3 1 5 9v4l3 1 1 6h2l2 4v4l4 2 4 7v5l4 2v4l3 1 4 8 1 1v5l3 1 5 8v4h2l6 12v4l4 2v4h2l2 4v4l3 1 1 7h3l1 7h2l2 4v29l-2 5h-2l-1 4h-3v5l-2 3h-2l-1 3-10 7-16 5h-638l-15-4-10-6-10-10-6-13-3-14 4-16 4-10 10-16 12-22 12-21 7-13 8-13 7-14 10-18 9-16 4-7 6-9 7-14 11-19 8-14 6-12 6-9 14-25 12-21 16-30 8-13 15-27 11-20 7-11 11-21 9-15 9-16 4-8 6-9 7-12 7-14 14-24 8-15 13-23 6-11 10-16 5-10 9-10 9-7zm7 49-2 4-2 1-2 7-4 6-2 1-2 9h-2l-2 5-2 1-2 7h-2l-3 7-2 5h-3l-3 9-3 6-2 1-2 8h-2l-2 5-2 1-2 8h-2l-2 7h-2l-2 7h-2l-2 8h-2l-2 5-2 1-2 8h-2l-1 3-3 1-2 10h-2l-3 6-3 5-2 1-3 9-3 5v2h-2l-3 7-3 5v2h-2l-2 7h-2l-2 5-2 1-2 9h-2l-6 12v2h-2l-3 7-3 5v2h-2l-3 7-3 5-2 1-2 6-2 1-1 7h-3l-2 9h-2l-2 5-3 5v2h-3l-3 9-3 5-2 1-3 8-3 5-2 1-2 9h-2l-2 5-2 1-2 5-2 1-2 8-4 6-2 1-2 7h-2l-2 6-2 1-2 6-2 1-2 6-2 1-2 9h-2l-2 6h-2l-2 5-2 1-3 8-3 5v2h-2l-2 7h-2l-2 6-2 1-2 6-2 1-2 6-2 1-2 8h-2l-2 6-2 1-2 7h-2l-3 8-3 5v2h-2l-2 5-2 1-2 6-2 1-2 6-2 1-3 7-3 6v2h-2l-2 6-2 1-2 7h-2l-2 7h-2l-2 5-2 1-2 7-2 1-2 4-2 1-1 7 2 2 6-1h617l2-1-1-6-21-36-12-22-12-21-6-10-12-22-5-8-12-23-14-25-10-18-8-13-7-14-10-16-8-16-10-18-8-14-15-26-10-19-6-10-9-16-7-14-12-20-8-15-7-11-7-14-16-28-8-15-10-17-12-22-9-16-8-14-10-18z" fill="#FEFEFE"></path><path transform="translate(364,281)" d="m0 0h75l1 1v33l-1 26-1 11h-2v60l-2 40h-2v55l-2 4-56 1-2-2-4-83-3-43-1-17-2-62-1-19z" fill="#FEFEFE"></path><path transform="translate(398,535)" d="m0 0h10l8 2 9 4 7 5v2l4 1v3h2l2 4v5l3 1 3 12 1 3v12l-2 5-2 10-3 1-1 6-4 5h-3v3l-9 6-8 3-9 1h-11l-10-2-10-5-10-9-4-6-5-16v-17l5-16 6-8 5-5 9-6 10-3z" fill="#FEFEFE"></path></svg>